<svg width="24" height="25" viewBox="0 0 24 25" fill="none" xmlns="http://www.w3.org/2000/svg">
<g id="Frame">
<path id="Vector" d="M3 20.4954V5.37461C3 5.01004 3.14483 4.6604 3.40262 4.40261C3.66041 4.14482 4.01004 3.99999 4.37462 3.99999H19.4954C19.86 3.99999 20.2096 4.14482 20.4674 4.40261C20.7252 4.6604 20.87 5.01004 20.87 5.37461V20.4954C20.87 20.8599 20.7252 21.2096 20.4674 21.4674C20.2096 21.7252 19.86 21.87 19.4954 21.87H15.3715V15.3543H16.3475C16.5699 15.3543 16.7832 15.266 16.9404 15.1087C17.0977 14.9515 17.186 14.7382 17.186 14.5158V13.4573C17.186 13.235 17.0977 13.0217 16.9404 12.8644C16.7832 12.7072 16.5699 12.6188 16.3475 12.6188H15.4265V11.3267C15.4265 10.172 15.9489 10.172 16.4712 10.172H17.1448C17.2554 10.1766 17.3657 10.1568 17.4678 10.114C17.57 10.0713 17.6615 10.0066 17.7359 9.92458C17.8158 9.84853 17.879 9.75674 17.9216 9.65499C17.9642 9.55325 17.9852 9.44378 17.9833 9.3335V8.31628C17.987 8.20435 17.9685 8.09279 17.9291 7.98798C17.8896 7.88317 17.8299 7.78717 17.7533 7.70547C17.6767 7.62376 17.5847 7.55796 17.4827 7.51181C17.3806 7.46566 17.2705 7.44008 17.1585 7.43653H15.5777C15.1165 7.41919 14.657 7.50218 14.2309 7.67978C13.8049 7.85737 13.4224 8.12534 13.1101 8.46516C12.7977 8.80498 12.5628 9.20856 12.4216 9.64803C12.2805 10.0875 12.2364 10.5524 12.2924 11.0105V12.6188H11.4126C11.3014 12.617 11.1909 12.6373 11.0875 12.6787C10.9842 12.72 10.8901 12.7815 10.8108 12.8595C10.7315 12.9376 10.6685 13.0306 10.6255 13.1333C10.5825 13.2359 10.5604 13.3461 10.5604 13.4573V14.5158C10.5604 14.6271 10.5825 14.7373 10.6255 14.8399C10.6685 14.9425 10.7315 15.0356 10.8108 15.1136C10.8901 15.1917 10.9842 15.2532 11.0875 15.2945C11.1909 15.3358 11.3014 15.3561 11.4126 15.3543H12.2924V21.87H4.37462C4.01004 21.87 3.66041 21.7252 3.40262 21.4674C3.14483 21.2096 3 20.8599 3 20.4954Z" stroke="#B6946E" stroke-linecap="round" stroke-linejoin="round"/>
</g>
</svg>
