<svg width="24" height="24" viewBox="0 0 24 24" fill="none" xmlns="http://www.w3.org/2000/svg">
<g id="Frame">
<path id="Vector" d="M9.99371 13.7531L4.95465 12.3515C4.87825 12.3297 4.81104 12.2836 4.76319 12.2202C4.71534 12.1567 4.68945 12.0794 4.68945 12C4.68945 11.9205 4.71534 11.8432 4.76319 11.7798C4.81104 11.7163 4.87825 11.6702 4.95465 11.6484L9.99371 10.2468C10.0539 10.2295 10.1086 10.1972 10.1529 10.1529C10.1972 10.1086 10.2295 10.0539 10.2468 9.99371L11.6484 4.95465C11.6702 4.87825 11.7163 4.81104 11.7798 4.76319C11.8432 4.71534 11.9205 4.68945 12 4.68945C12.0794 4.68945 12.1567 4.71534 12.2202 4.76319C12.2836 4.81104 12.3297 4.87825 12.3515 4.95465L13.7531 9.99371C13.7704 10.0539 13.8028 10.1086 13.847 10.1529C13.8913 10.1972 13.9461 10.2295 14.0062 10.2468L19.0453 11.6484C19.1217 11.6702 19.1889 11.7163 19.2367 11.7798C19.2846 11.8432 19.3105 11.9205 19.3105 12C19.3105 12.0794 19.2846 12.1567 19.2367 12.2202C19.1889 12.2836 19.1217 12.3297 19.0453 12.3515L14.0062 13.7531C13.9461 13.7704 13.8913 13.8028 13.847 13.847C13.8028 13.8913 13.7704 13.9461 13.7531 14.0062L12.3515 19.0453C12.3297 19.1217 12.2836 19.1889 12.2202 19.2367C12.1567 19.2846 12.0794 19.3105 12 19.3105C11.9205 19.3105 11.8432 19.2846 11.7798 19.2367C11.7163 19.1889 11.6702 19.1217 11.6484 19.0453L10.2468 14.0062C10.2295 13.9461 10.1972 13.8913 10.1529 13.847C10.1086 13.8028 10.0539 13.7704 9.99371 13.7531Z" stroke="#B6946E" stroke-linecap="round" stroke-linejoin="round"/>
</g>
</svg>
