<svg width="24" height="25" viewBox="0 0 24 25" fill="none" xmlns="http://www.w3.org/2000/svg">
<g id="Frame">
<path id="Vector" d="M18.437 21.437H5.56299C4.89995 21.437 4.26406 21.1736 3.79522 20.7048C3.32638 20.2359 3.06299 19.6 3.06299 18.937V6.063C3.06299 5.39996 3.32638 4.76408 3.79522 4.29524C4.26406 3.8264 4.89995 3.563 5.56299 3.563H18.437C19.1 3.563 19.7359 3.8264 20.2048 4.29524C20.6736 4.76408 20.937 5.39996 20.937 6.063V18.937C20.937 19.6 20.6736 20.2359 20.2048 20.7048C19.7359 21.1736 19.1 21.437 18.437 21.437ZM5.56299 4.563C5.16516 4.563 4.78363 4.72104 4.50233 5.00234C4.22102 5.28365 4.06299 5.66518 4.06299 6.063V18.937C4.06299 19.3348 4.22102 19.7164 4.50233 19.9977C4.78363 20.279 5.16516 20.437 5.56299 20.437H18.437C18.8348 20.437 19.2163 20.279 19.4976 19.9977C19.779 19.7164 19.937 19.3348 19.937 18.937V6.063C19.937 5.66518 19.779 5.28365 19.4976 5.00234C19.2163 4.72104 18.8348 4.563 18.437 4.563H5.56299Z" fill="#B6946E"/>
<path id="Vector_2" d="M12 17.094C11.0914 17.093 10.2035 16.8227 9.44845 16.3171C8.69344 15.8116 8.10527 15.0935 7.75828 14.2537C7.41129 13.414 7.32107 12.4902 7.49901 11.5991C7.67696 10.7081 8.11508 9.88981 8.758 9.24773C9.40092 8.60564 10.2198 8.16859 11.111 7.99181C12.0023 7.81502 12.926 7.90646 13.7653 8.25454C14.6046 8.60262 15.3219 9.19174 15.8265 9.9474C16.331 10.7031 16.6002 11.5914 16.6 12.5C16.5984 13.719 16.1131 14.8874 15.2506 15.7488C14.3881 16.6102 13.219 17.094 12 17.094ZM12 8.9C11.2894 8.90099 10.5951 9.11255 10.0046 9.50795C9.41422 9.90335 8.95421 10.4649 8.68274 11.1216C8.41126 11.7783 8.34049 12.5007 8.47936 13.1976C8.61823 13.8945 8.96052 14.5346 9.46299 15.037C9.96546 15.5395 10.6056 15.8818 11.3025 16.0207C11.9994 16.1595 12.7218 16.0888 13.3785 15.8173C14.0352 15.5458 14.5967 15.0858 14.9921 14.4954C15.3875 13.905 15.599 13.2106 15.6 12.5C15.6 11.5452 15.2208 10.6295 14.5456 9.95441C13.8705 9.27928 12.9548 8.9 12 8.9Z" fill="#B6946E"/>
<path id="Vector_3" d="M17.2 8.405C17.7937 8.405 18.275 7.9237 18.275 7.33C18.275 6.73629 17.7937 6.255 17.2 6.255C16.6063 6.255 16.125 6.73629 16.125 7.33C16.125 7.9237 16.6063 8.405 17.2 8.405Z" fill="#B6946E"/>
</g>
</svg>
