<svg width="40" height="40" viewBox="0 0 40 40" fill="none" xmlns="http://www.w3.org/2000/svg">
<g id="Frame">
<path id="Vector" d="M20.3717 18.4583C20.2339 18.6168 20.1611 18.8214 20.1676 19.0312C20.1742 19.241 20.2598 19.4406 20.4072 19.5901C20.5545 19.7396 20.7529 19.828 20.9626 19.8375C21.1724 19.8471 21.3779 19.7771 21.5383 19.6417L33.205 7.975V13.9417C33.2084 14.1616 33.2973 14.3716 33.4529 14.5271C33.6084 14.6827 33.8184 14.7716 34.0383 14.775C34.2593 14.775 34.4713 14.6872 34.6276 14.5309C34.7839 14.3746 34.8717 14.1627 34.8717 13.9417V5.95833C34.8717 5.73732 34.7839 5.52536 34.6276 5.36908C34.4713 5.2128 34.2593 5.125 34.0383 5.125H26.055C25.834 5.125 25.622 5.2128 25.4657 5.36908C25.3095 5.52536 25.2217 5.73732 25.2217 5.95833C25.2217 6.17935 25.3095 6.39131 25.4657 6.54759C25.622 6.70387 25.834 6.79167 26.055 6.79167H32.0217L20.3717 18.4583Z" fill="white"/>
<path id="Vector_2" d="M29.7933 34.8766H10.2066C8.85885 34.8753 7.56665 34.3393 6.61363 33.3863C5.6606 32.4333 5.12461 31.1411 5.12329 29.7933V10.2066C5.12461 8.85885 5.6606 7.56665 6.61363 6.61363C7.56665 5.6606 8.85885 5.12461 10.2066 5.12329H20.2533C20.4743 5.12329 20.6863 5.21109 20.8425 5.36737C20.9988 5.52365 21.0866 5.73561 21.0866 5.95662C21.0866 6.17764 20.9988 6.3896 20.8425 6.54588C20.6863 6.70216 20.4743 6.78996 20.2533 6.78996H10.2066C9.30087 6.79128 8.4326 7.15167 7.79214 7.79214C7.15167 8.4326 6.79128 9.30087 6.78996 10.2066V29.7933C6.79128 30.699 7.15167 31.5673 7.79214 32.2078C8.4326 32.8482 9.30087 33.2086 10.2066 33.21H29.7933C30.699 33.2086 31.5673 32.8482 32.2078 32.2078C32.8482 31.5673 33.2086 30.699 33.21 29.7933V19.7483C33.21 19.5273 33.2978 19.3153 33.454 19.159C33.6103 19.0028 33.8223 18.915 34.0433 18.915C34.2643 18.915 34.4763 19.0028 34.6325 19.159C34.7888 19.3153 34.8766 19.5273 34.8766 19.7483V29.7933C34.8753 31.1411 34.3393 32.4333 33.3863 33.3863C32.4333 34.3393 31.1411 34.8753 29.7933 34.8766Z" fill="white"/>
</g>
</svg>
