<svg width="24" height="25" viewBox="0 0 24 25" fill="none" xmlns="http://www.w3.org/2000/svg">
<path d="M21.945 3.265C21.7294 3.08627 21.4694 2.96923 21.1927 2.92627C20.9159 2.88331 20.6327 2.91605 20.373 3.021L2.45602 10.254C2.16649 10.373 1.92 10.5772 1.74926 10.8396C1.57852 11.1019 1.49161 11.41 1.50008 11.7229C1.50854 12.0358 1.61197 12.3388 1.79664 12.5915C1.98131 12.8442 2.23848 13.0348 2.53402 13.138L6.40002 14.48L8.49502 21.406C8.49902 21.42 8.51202 21.429 8.51802 21.442C8.53961 21.4973 8.57113 21.5481 8.61102 21.592C8.67164 21.6597 8.74989 21.7092 8.83702 21.735C8.84702 21.739 8.85402 21.748 8.86402 21.75H8.87002L8.87302 21.751C8.95039 21.7676 9.03078 21.7635 9.10602 21.739C9.11402 21.737 9.12202 21.737 9.13102 21.734C9.20327 21.7087 9.26865 21.6669 9.32202 21.612C9.32802 21.605 9.33802 21.604 9.34402 21.598L12.357 18.272L16.754 21.677C17.021 21.886 17.35 21.999 17.689 21.999C18.423 21.999 19.056 21.485 19.207 20.768L22.469 4.75C22.5244 4.47807 22.5048 4.19623 22.4126 3.93452C22.3203 3.67282 22.1587 3.44107 21.945 3.264M9.58802 15.795L8.88102 19.232L7.40602 14.354L14.721 10.544L9.72402 15.542C9.65482 15.6111 9.60752 15.6991 9.58802 15.795ZM18.227 20.567C18.2082 20.6577 18.1665 20.742 18.1057 20.8119C18.0449 20.8818 17.9672 20.9348 17.88 20.966C17.7949 20.9987 17.7028 21.0088 17.6127 20.9951C17.5226 20.9814 17.4376 20.9445 17.366 20.888L12.603 17.199C12.5035 17.1221 12.3786 17.0856 12.2533 17.0967C12.128 17.1079 12.0115 17.1658 11.927 17.259L9.83002 19.57L10.536 16.143L17.725 8.953C17.8092 8.86853 17.8604 8.75676 17.8695 8.63784C17.8785 8.51892 17.8447 8.4007 17.7742 8.3045C17.7037 8.2083 17.6012 8.14047 17.4851 8.11324C17.3689 8.08601 17.2469 8.10117 17.141 8.156L6.77802 13.554L2.86102 12.192C2.75717 12.1577 2.66659 12.0919 2.60188 12.0037C2.53718 11.9155 2.50158 11.8094 2.50002 11.7C2.49504 11.5897 2.52452 11.4805 2.58437 11.3877C2.64422 11.2949 2.73147 11.223 2.83402 11.182L20.748 3.949C20.8398 3.91 20.9407 3.89738 21.0393 3.91258C21.1378 3.92777 21.2302 3.97017 21.306 4.035C21.3814 4.09599 21.4383 4.17673 21.4705 4.2682C21.5026 4.35967 21.5087 4.45827 21.488 4.553L18.227 20.567Z" fill="#B6946E"/>
</svg>
